<?xml version="1.0" standalone="no"?><!DOCTYPE svg PUBLIC "-//W3C//DTD SVG 1.1//EN" "http://www.w3.org/Graphics/SVG/1.1/DTD/svg11.dtd"><svg t="1556613730210" class="icon" style="" viewBox="0 0 1024 1024" version="1.1" xmlns="http://www.w3.org/2000/svg" p-id="4019" xmlns:xlink="http://www.w3.org/1999/xlink" width="200" height="200"><defs><style type="text/css"></style></defs><path d="M774.28 718.19c-66.4 76.13-146.91 135.34-236.93 147.11-96.87 12.7-203.55-27.38-280.11-94.15-85.54-74.61-105.86-171.3-103.77-280.06C155 411.19 195 344.37 256.66 266.74c130.42-164.26 352.11-196.81 499.81-68s155.67 361.38 17.81 519.45z" fill="#F8E64C" p-id="4020"></path><path d="M761.69 707.2c-63.17 72.43-139.77 128.77-225.41 140-92.16 12.05-193.66-26-266.49-89.57-81.38-71-100.72-163-98.73-266.44 1.46-76 39.54-139.58 98.18-213.44 124.07-156.28 335-187.24 475.5-64.69s148.1 343.76 16.95 494.14z" fill="#FFFFFF" p-id="4021"></path><path d="M536.43 492.92c-5.15 2.71-7.22 0.47-6.31-4 10.71-52.44 45.82-219.8 61.94-271.33s199.71 67.91 167 104.74S612.6 441.45 536.43 492.92z m11.83 10.75c-4.78-1.74-4.57-5.06-1.2-7.86 39.84-33 167.54-137.76 210-166s74.71 203.91 31.84 208.12-162.71-17.15-240.64-34.26z m-23.18 11.71c-2.07-5.18 0.3-7.61 4.46-7.12 49.18 5.83 206.07 25.41 253.81 37.08s-86.29 219.25-118.18 188.43-98.77-142.95-140.09-218.39z m-5.34 17.46c2-4.9 5-5 7.12-2 25.38 36 105.69 151.56 126.54 190.64S464.38 815.88 465 774s31.64-162.46 54.74-241.16z m-14.59-16.18c5-2.48 7.1-0.28 6.31 4-9.26 50.13-39.75 210.11-54.35 259.23s-198.31-70.14-167-104.74 141.3-110.89 215.04-158.49z m-10.76-10.73c4.82 1.79 4.66 5.09 1.3 7.83-39.68 32.36-166.87 135-209.24 162.52S208.84 472.65 251.92 469s163.87 19 242.47 36.93z m23.1-11.75c2.27 5.3-0.13 7.72-4.46 7.12-51.23-7.11-214.66-30.81-264.53-43.81S332.8 237 366.67 269.06s106.06 147.52 150.82 225.12z m11-11.8c-2.41 5.75-5.83 5.93-8.3 2.38-29.25-42-121.8-176.65-145.76-222.25s220.66-111.94 219.67-62.87-38.1 190.42-65.58 282.74z" fill="#F8E64C" p-id="4022"></path><path d="M319.08 732.47c-13.76-12-24.62-24.21-30-35-4.25-8.57-4.66-15.61-1.22-20.95l-0.9 0.59c-5.38 3.5-10.88 3.24-16.34-0.77-13.07-9.64-25.48-41.22-33.17-84.51-7.34-41.28-8.07-82.18-1.87-104.2 3.48-12.35 8.95-18.92 16.26-19.55 14-1.2 36.94 0.46 64.53 4-29.05-5.06-53.59-9.82-68.11-13.61-6.78-1.76-10.65-6.94-11.51-15.39-2.31-22.84 17.93-64.34 37.64-95.56 24.56-38.9 52.76-70.09 71.84-79.47 9-4.44 16.12-4.27 21.09 0.4 9.13 8.65 21.31 23.7 35.23 42.85-12.68-20-23-37-28.92-48.28-3.55-6.75-1.76-14.17 5.3-22 17.57-19.57 62.87-37.13 99.4-47s83.21-17.35 105.18-8.68c7.78 3.07 11.65 7.93 11.52 14.47-0.07 3.42-0.32 7.32-0.73 11.65 3.35-4.21 8.63-6.63 15.78-7.2 18.75-1.49 49.7 10.1 82.81 31 32.31 20.41 58.05 44.48 67.18 62.81 5.24 10.51 5.14 18.93-0.29 25.05-3.1 3.49-7 7.41-11.49 11.72q4.55-3.22 8.25-5.69c5.32-3.54 10.71-3.39 16 0.43 28.26 20.24 45.93 140.74 33.18 188.17-3.59 13.35-9.23 20.49-16.77 21.23-8.64 0.85-20.63 0.65-35-0.39 12.06 2.14 22.19 4.16 29.59 6 6.26 1.53 9.86 6.23 10.7 14 2.4 22.19-18.26 64.16-38.38 96.05-25.09 39.73-53.35 71.31-72 80.43-8.34 4.08-14.87 4-19.38-0.44-2.72-2.63-5.72-5.88-8.95-9.68 0.94 4.72-0.92 9.75-5.57 15-14.75 16.64-53.54 31.46-84.92 39.77s-71.55 14.5-90.74 7.07c-6.89-2.87-10.3-7.12-10.3-12.79a223 223 0 0 1 3-29c-3.39 14.46-6.46 26.56-9 35.14-2.18 7.32-7.95 11.44-17.16 12.23-27.96 2.39-85.1-27.92-121.76-59.9zM294 672.37c-1.14 1.17-2.19 2.29-3.17 3.37-4.44 4.91-4.45 11.93 0 20.86 19.48 39.24 112 97.15 149.92 93.89 8.37-0.72 13.59-4.39 15.53-10.9 13.47-45.31 41.43-189.32 54.33-259.14 0.32-1.73 0.08-3-0.6-3.56s-2.36-0.38-4.33 0.59c-24.16 15.6-50 32.79-75.19 50.13C380.34 607.59 323.54 652 294 672.37z m200.12-165.54c-88.41-20.19-201.87-40.35-242.12-36.92-6.44 0.55-11.36 6.67-14.6 18.19-12.42 44.07 5.43 161.56 32.82 185.47 0.51 0.44 1 0.84 1.52 1.22 4.83 3.55 9.48 3.79 14.21 0.71q3.09-2 6.8-4.57c23.17-23.71 78.17-64.65 136.54-104.81 25-20 48.39-38.87 65.82-53.09 1.48-1.21 2.23-2.51 2.06-3.56s-1.24-1.96-3.05-2.64z m-87.65 77.43c-42.7 30-81.27 59.1-103.62 79.55 26-18.69 65.27-49.16 103.62-79.55z m114.16-51.11c-26 88.54-54.19 201.65-54.73 240.83-0.07 4.85 3 8.51 9.11 10.87 34.12 13.22 147.68-17.1 173.58-46.33 5.31-6 6.65-11.57 4-16.58-0.4-0.75-0.82-1.53-1.27-2.35-22.9-28.4-55.75-80-87.26-133.66-14.3-20.75-27.68-39.93-37.96-54.53-0.47-0.66-1.42-1.76-2.5-1.64s-2.12 1.35-2.97 3.39z m-155-263.74c-4.33-3.77-10.58-3.69-18.61 0.25-18.79 9.24-46.68 40.16-71.07 78.79-24.95 39.55-39.23 75.66-37.33 94.38 0.77 7.58 4.17 12.21 10.11 13.76 46 12 193.09 33.88 264.43 43.78 1.79 0.25 3.14-0.08 3.78-0.92s0.63-2.68-0.29-4.85c-50.36-87.3-119-194.89-150.62-224.86z m145.61 246.13c1.18 1 1.58 2.87 1.14 5.25-5.79 31.36-14.63 77.69-23.82 123.33 9.18-36.93 19.91-76.2 30.28-111.55v-0.09c1.47-3.54 3.27-4.44 4.52-4.58 1.51-0.17 3 0.69 4.23 2.42 6.92 9.83 15.26 21.75 24.33 34.83-9.62-16.72-19-33.37-27.71-49.32v-0.1c-1.43-3.58-0.74-5.61 0.08-6.69 1.07-1.39 3-2 5.36-1.71 21.67 2.57 50.61 6.14 81.46 10.17-21.55-4.1-43-8.5-63.05-12.91h-0.12c-3.12-1.14-4-2.82-4.23-4-0.31-1.78 0.67-3.71 2.75-5.44 17.08-14.16 39.82-32.86 64.27-52.72-24.81 17.75-50.08 35.3-73.78 51.32l-0.09 0.05c-3.51 1.86-5.44 1.36-6.43 0.62s-1.91-2.25-1.23-5.59c1.12-5.49 2.34-11.43 3.64-17.72q-1.71 5.85-3.43 11.6v0.09c-1.72 4.1-3.78 5.15-5.2 5.3-1.69 0.18-3.37-0.8-4.73-2.75-12.81-18.35-29.74-42.96-47.64-69.35 16.13 26 32 52.7 46.46 77.7l0.05 0.1c1.56 3.64 0.91 5.69 0.08 6.77-1.07 1.41-3 2-5.53 1.64-27.6-3.83-66.52-9.45-106.56-15.6 29.86 5.63 60.31 12 88.25 18.39h0.12c3.19 1.18 4.1 2.89 4.3 4.11 0.29 1.76-0.68 3.65-2.73 5.32a6646.991 6646.991 0 0 1-46.78 37.9c18.67-12.63 37.36-25 55.14-36.45l0.1-0.06c3.43-1.7 5.33-1.17 6.32-0.43z m141.64 203a163.72 163.72 0 0 0 12.94 14.52c3.9 3.75 9.7 3.79 17.25 0.1 41-20.05 113.52-135.9 109.34-174.6-0.75-6.88-3.87-11-9.28-12.35-12.18-3-31.78-6.52-55.22-10.26-23-2.62-49.57-6.57-77.08-11.29-44.87-6.15-90.52-11.85-121.4-15.51-1.71-0.2-3 0.15-3.65 1s-0.69 2.67 0.15 4.8c12.34 22.52 25.87 46.42 39.67 69.92 33.74 49.07 72.48 106.88 87.28 133.71z m-72.19-108.28c22.88 37.93 45.51 73 63.6 97.23-14.53-24.19-39.14-61.29-63.6-97.23z m8.37-419.72a21.27 21.27 0 0 0-6.24-3.61c-39.05-15.41-171.53 20.73-202.5 55.24-6.48 7.22-8.18 13.92-5 19.91 22.09 42.05 105 163.69 145.7 222.14 1 1.37 2 2.06 3 2 1.3-0.14 2.59-1.6 3.65-4.12 3.39-11.36 6.8-23.08 10.21-35 16.42-78.29 40.89-189.95 53.33-229.72a19.19 19.19 0 0 1 0.85-2.28c0.66-5.87 1.05-11.06 1.14-15.45a11.29 11.29 0 0 0-4.14-9.11z m-49.4 257c-3.24 15.44-6.17 29.59-8.63 41.62-0.37 1.84-0.19 3.17 0.52 3.72s2.38 0.31 4.39-0.75c32.78-22.14 68.54-47.23 101.92-71.69 35.28-28.41 71.09-56.7 96.51-75.58a282.23 282.23 0 0 0 24-23.09c4.87-5.49 4.88-13.22 0-23-19.68-39.49-109.69-95.87-148.17-92.8-8.18 0.65-13.68 3.89-16.38 9.62-5.54 49.13-29.5 145.62-54.16 231.93z m99.39-25.65c-34.3 27.62-68.11 55.36-91.39 74.66-1.52 1.26-2.29 2.6-2.1 3.68 0.22 1.28 1.72 2.1 3 2.56 32.4 7.11 68.2 14.18 102.47 20.07 27.23 3.73 54.18 7.62 77.37 11.33 25.78 2.91 47.12 4.13 60.44 2.82 6.68-0.65 11.78-7.34 15.14-19.86 6-22.5 5.56-63.33-1.26-104-7-41.89-19-73.36-31.21-82.16-4.68-3.37-9.23-3.49-13.9-0.39-5.82 3.88-13.33 9.26-22.08 15.75-23.99 20.95-58.72 47.84-96.48 75.52z m-48.36-196.4c-11.39 39.51-30.27 124.26-45.17 194.3 20.21-72.94 38.66-148.79 45.17-194.32z" fill="#F8E64C" p-id="4023"></path><path d="M338.981381 699.588535a253.68 276.15 41.09 1 0 362.995703-416.256423 253.68 276.15 41.09 1 0-362.995703 416.256423Z" fill="#F8E64C" p-id="4024"></path><path d="M508.54 527.05c2.85 2.48 4.46 0 7.41 1.33 4.62 2.09 11.27-3.26 15 0 2.81 2.46 5.62 1 8.85-0.26 2.58-1 5.6-1.13 7.87-3.73 2-2.27 2.66-5.56 2.88-8.6 0.25-3.44-1.19-6.66-0.1-9.77 1.24-3.53 4.9-6.91 2.89-10.14-1.77-2.86-5.2-4.72-6.28-7.75-1-2.66 0.52-6.51-1.84-8.56s-6-1-8.35-2.23c-3.77-2-6.14-5.42-9.5-4.11-2.9 1.12-9.1 2.35-13.73 0.69s-7 8-13.15 9.31c-5.4 1.16-3.25 7.18-6.19 10.55s4.87 9.2 2.55 14.44c-1.18 2.67 2.77 5 4.63 9.69 1.2 2.94 5.14 7.46 7.06 9.14z" fill="#FCFFF5" p-id="4025"></path></svg>